# xmcd
# 
# Track frame offsets:
#     150
#     11978
#     24253
#     37185
#     47793
#     61600
#     78540
#     95080
#     112940
#     124923
#     132428
#     141785
#     157848
#     170115
#     180213
#     191198
#     206753
#     221260
#     234148
#     249390
#     264263
#     279098
#     294105
#     308528
# 
# Disc length: 4296
# 
# Revision: 2
# Processed by: cddbd v1.5.2PL0 Copyright (c) Steve Scherf et al.
# Submitted via: BonkEnc v1.0.8
# 
DISCID=4410c618
DTITLE=Various Artist - 超空想ベースボール -夢のオールスター・ゲーム-
DYEAR=0
DGENRE=Anime
TTITLE0=ささきいさお、こおろぎ'73 - 行け行け飛雄馬/新巨人の星
TTITLE1=こおろぎ'73 - がんばれドカベン
TTITLE2=フォー・スラッガーズ - 男どアホウ! 甲子園
TTITLE3=堀江美都子 - 一球さん
TTITLE4=99 Harmony - 君は何かができる/キャプテン
TTITLE5=99 Harmony - ありがとう/キャプテン
TTITLE6=倉田まり子 - 真夏のランナー/ナイン
TTITLE7=岩崎良美 - 愛がひとりぼっち/タッチ
TTITLE8=千葉由美、ヤング・フレッシュ、こおろぎ'73 - やるぞ一発! 野球道/一発貫太くん
TTITLE9=林恵々子 - アパッチ野球軍
TTITLE10=オーロラ3人娘 - クールな恋い/巨人の星
TTITLE11=堀江美都子、コロムビア男声コーラス - 野球狂の詩
TTITLE12=ジ・エコーズ - 友情の虹/巨人の星
TTITLE13=松本茂之 - 侍ジャイアンツ
TTITLE14=ロイヤルナイツ - 王者! 侍ジャイアンツ
TTITLE15=ささきいさお、こおろぎ'73/ - よみがえれ飛雄馬/新巨人の星
TTITLE16=堀江美都子 - 勇気のテーマ/野球狂の詩
TTITLE17=水木一郎 - 心に汗を/新巨人の星Ⅱ
TTITLE18=CHA-CHA - ボクらの夢によろしく/ミラクルジャイアンツ 童夢くん
TTITLE19=かおりくみこ、こおろぎ'73 - 青春虹の橋/がんばれ! レッドビッキーズ
TTITLE20=こおろぎ'73、コロムビアゆりかご会 - がんばれ! レッドビッキーズ
TTITLE21=日高美子 - やがて青春/それゆけ! レッドビッキーズ
TTITLE22=こおろぎ'73、コロムビアゆりかご会 - 好きさ好きさレッドビッキーズ/それゆけ! レッドビッキーズ
TTITLE23=アンサンブル・ボッカ - 行け行け飛雄馬
EXTD=
EXTT0=
EXTT1=
EXTT2=
EXTT3=
EXTT4=
EXTT5=
EXTT6=
EXTT7=
EXTT8=
EXTT9=
EXTT10=
EXTT11=
EXTT12=
EXTT13=
EXTT14=
EXTT15=
EXTT16=
EXTT17=
EXTT18=
EXTT19=
EXTT20=
EXTT21=
EXTT22=
EXTT23=
PLAYORDER=
